<svg width="160" height="160" viewBox="0 0 160 160" fill="none" xmlns="http://www.w3.org/2000/svg">
<g clip-path="url(#clip0_502_8016)">
<g clip-path="url(#clip1_502_8016)">
<path d="M150.693 0H9.50495C4.25551 0 0 4.25551 0 9.50495V149.592C0 154.842 4.25551 159.097 9.50495 159.097H150.693C155.943 159.097 160.198 154.842 160.198 149.592V9.50495C160.198 4.25551 155.943 0 150.693 0Z" fill="#F2F2F2"/>
<mask id="mask0_502_8016" style="mask-type:alpha" maskUnits="userSpaceOnUse" x="0" y="0" width="161" height="160">
<path d="M150.693 0H9.50495C4.25551 0 0 4.25551 0 9.50495V150.332C0 155.581 4.25551 159.837 9.50495 159.837H150.693C155.943 159.837 160.198 155.581 160.198 150.332V9.50495C160.198 4.25551 155.943 0 150.693 0Z" fill="#C1C4DE"/>
</mask>
<g mask="url(#mask0_502_8016)">
<path d="M161.311 8.51172C154.484 24.8621 140.106 51.1299 130.996 66.6328C129.855 68.5746 128.465 70.4525 127.401 72.42C125.722 75.5266 124.545 80.2917 124.979 83.6447C125.992 91.48 136.568 98.3638 144.358 102.056C149.857 104.661 154.649 108.282 160.768 109.941" stroke="white" stroke-opacity="0.8" stroke-width="0.950495" stroke-linecap="round"/>
<path d="M151.669 -3.69922C142.907 18.5412 124.412 43.476 112.721 64.564C111.257 67.2051 109.473 69.7597 108.108 72.4357C105.953 76.6612 104.443 83.143 104.999 87.7038C106.3 98.3617 119.872 107.725 129.868 112.747C136.889 116.659 151.495 124.525 160.199 127.648" stroke="white" stroke-opacity="0.8" stroke-width="0.950495" stroke-linecap="round"/>
<path d="M145.921 -27.75C132.84 3.81857 116.07 31.179 98.6162 61.1118C96.4303 64.8605 93.7677 68.4866 91.7298 72.2855C88.5124 78.2831 86.2581 87.4832 87.0889 93.9571C89.0304 109.085 109.292 122.377 124.216 129.504C134.75 134.535 149.96 143.867 161.681 147.072" stroke="white" stroke-opacity="0.8" stroke-width="0.950495" stroke-linecap="round"/>
</g>
<path d="M10.8022 150.556V155.96H9.9761L6.99596 152.301V155.96H6V150.556H6.8261L9.80625 154.215V150.556H10.8022ZM12.1577 151.838H13.1228V155.96H12.1577V151.838ZM12.6441 151.158C12.4691 151.158 12.3224 151.104 12.204 150.996C12.0857 150.883 12.0265 150.744 12.0265 150.579C12.0265 150.414 12.0857 150.278 12.204 150.17C12.3224 150.057 12.4691 150 12.6441 150C12.8191 150 12.9658 150.054 13.0842 150.162C13.2026 150.265 13.2618 150.396 13.2618 150.556C13.2618 150.726 13.2026 150.87 13.0842 150.988C12.971 151.101 12.8243 151.158 12.6441 151.158ZM16.0724 154.192L15.3544 154.872V155.96H14.3893V150.232H15.3544V153.69L17.354 151.838H18.5121L16.7904 153.567L18.6742 155.96H17.5007L16.0724 154.192ZM23 153.922C23 153.989 22.9949 154.084 22.9846 154.208H19.7496C19.8062 154.511 19.9529 154.753 20.1897 154.933C20.4316 155.108 20.7301 155.196 21.0853 155.196C21.5382 155.196 21.9114 155.047 22.2048 154.748L22.7221 155.343C22.5368 155.564 22.3026 155.731 22.0195 155.844C21.7364 155.958 21.4173 156.014 21.0621 156.014C20.6092 156.014 20.2103 155.924 19.8654 155.744C19.5206 155.564 19.2529 155.314 19.0625 154.995C18.8772 154.671 18.7846 154.306 18.7846 153.899C18.7846 153.497 18.8746 153.137 19.0548 152.818C19.2401 152.494 19.4949 152.242 19.8191 152.061C20.1434 151.881 20.5088 151.791 20.9154 151.791C21.3169 151.791 21.6746 151.881 21.9886 152.061C22.3077 152.236 22.5548 152.486 22.7298 152.81C22.9099 153.129 23 153.5 23 153.922ZM20.9154 152.563C20.6066 152.563 20.3441 152.656 20.1279 152.841C19.9169 153.021 19.7882 153.263 19.7419 153.567H22.0812C22.0401 153.268 21.914 153.026 21.7029 152.841C21.4919 152.656 21.2294 152.563 20.9154 152.563Z" fill="#D8DFE5"/>
</g>
</g>
<g opacity="0.2" clip-path="url(#clip2_502_8016)">
<path fill-rule="evenodd" clip-rule="evenodd" d="M87.7194 49.5875C75.2444 53.0587 64.1808 55.8949 63.1337 55.8894C60.1212 55.8733 57.3019 53.4844 56.8779 50.5893C56.6788 49.2271 56.7138 47.2521 56.956 46.201L57.3964 44.2894L55.7817 46.3152C53.2797 49.4541 50.8852 54.3909 50.4013 57.4086C49.4506 63.3349 54.1961 67.2429 60.5751 65.7868C63.1035 65.21 111.065 44.3395 111.931 43.4392C112.593 42.7516 109.055 43.6501 87.7194 49.5875Z" fill="#FF6452"/>
</g>
<defs>
<clipPath id="clip0_502_8016">
<rect width="160" height="160" fill="white"/>
</clipPath>
<clipPath id="clip1_502_8016">
<rect width="160.317" height="160" fill="white"/>
</clipPath>
<clipPath id="clip2_502_8016">
<rect width="66" height="56" fill="white" transform="translate(50.2798 24.7812)"/>
</clipPath>
</defs>
</svg>
